<mxfile host="app.diagrams.net" modified="2023-12-13T09:47:58.965Z" agent="Mozilla/5.0 (Windows NT 10.0; Win64; x64) AppleWebKit/537.36 (KHTML, like Gecko) Chrome/119.0.0.0 Safari/537.36" etag="nNnuVicIGefkC-kaor6r" version="22.1.8" type="github">
  <diagram name="Page-1" id="c5UgdqmH59fsXJImq2fl">
    <mxGraphModel dx="808" dy="428" grid="1" gridSize="10" guides="1" tooltips="1" connect="1" arrows="1" fold="1" page="1" pageScale="1" pageWidth="827" pageHeight="1169" math="0" shadow="0">
      <root>
        <mxCell id="0" />
        <mxCell id="1" parent="0" />
        <mxCell id="ukpxnibWKMu8RKWQ4isI-1" value="start" style="ellipse;whiteSpace=wrap;html=1;aspect=fixed;fillColor=#1ba1e2;strokeColor=#006EAF;fontColor=#ffffff;" parent="1" vertex="1">
          <mxGeometry x="400" y="310" width="80" height="80" as="geometry" />
        </mxCell>
        <mxCell id="ukpxnibWKMu8RKWQ4isI-3" value="logg inn" style="rounded=1;whiteSpace=wrap;html=1;" parent="1" vertex="1">
          <mxGeometry x="380" y="450" width="120" height="60" as="geometry" />
        </mxCell>
        <mxCell id="ukpxnibWKMu8RKWQ4isI-5" value="" style="endArrow=none;html=1;rounded=0;" parent="1" edge="1">
          <mxGeometry width="50" height="50" relative="1" as="geometry">
            <mxPoint x="330" y="689.62" as="sourcePoint" />
            <mxPoint x="400" y="689.62" as="targetPoint" />
          </mxGeometry>
        </mxCell>
        <mxCell id="ukpxnibWKMu8RKWQ4isI-20" value="" style="edgeStyle=orthogonalEdgeStyle;rounded=0;orthogonalLoop=1;jettySize=auto;html=1;exitX=1;exitY=0.5;exitDx=0;exitDy=0;" parent="1" source="ukpxnibWKMu8RKWQ4isI-24" target="ukpxnibWKMu8RKWQ4isI-19" edge="1">
          <mxGeometry relative="1" as="geometry">
            <mxPoint x="500" y="600" as="sourcePoint" />
          </mxGeometry>
        </mxCell>
        <mxCell id="ukpxnibWKMu8RKWQ4isI-9" value="" style="endArrow=none;html=1;rounded=0;" parent="1" edge="1">
          <mxGeometry width="50" height="50" relative="1" as="geometry">
            <mxPoint x="439.62" y="840" as="sourcePoint" />
            <mxPoint x="439.62" y="740" as="targetPoint" />
            <Array as="points">
              <mxPoint x="439.62" y="790" />
            </Array>
          </mxGeometry>
        </mxCell>
        <mxCell id="ukpxnibWKMu8RKWQ4isI-18" value="Se klÃ¦r" style="rounded=1;whiteSpace=wrap;html=1;" parent="1" vertex="1">
          <mxGeometry x="210" y="660" width="120" height="60" as="geometry" />
        </mxCell>
        <mxCell id="ukpxnibWKMu8RKWQ4isI-19" value="Utforske" style="whiteSpace=wrap;html=1;rounded=1;" parent="1" vertex="1">
          <mxGeometry x="570" y="660" width="120" height="60" as="geometry" />
        </mxCell>
        <mxCell id="L0sxh5gFCQi2ptvvYLSA-12" style="edgeStyle=orthogonalEdgeStyle;rounded=0;orthogonalLoop=1;jettySize=auto;html=1;exitX=0.5;exitY=1;exitDx=0;exitDy=0;" edge="1" parent="1" source="ukpxnibWKMu8RKWQ4isI-24">
          <mxGeometry relative="1" as="geometry">
            <mxPoint x="439.6923076923076" y="740" as="targetPoint" />
          </mxGeometry>
        </mxCell>
        <mxCell id="ukpxnibWKMu8RKWQ4isI-24" value="produkter" style="rhombus;whiteSpace=wrap;html=1;" parent="1" vertex="1">
          <mxGeometry x="400" y="650" width="80" height="80" as="geometry" />
        </mxCell>
        <mxCell id="L0sxh5gFCQi2ptvvYLSA-4" value="" style="line;strokeWidth=2;direction=south;html=1;" vertex="1" parent="1">
          <mxGeometry x="435" y="390" width="10" height="60" as="geometry" />
        </mxCell>
        <mxCell id="L0sxh5gFCQi2ptvvYLSA-5" value="hjemme,butikk,om oss,kontakt&lt;br&gt;" style="shape=ext;double=1;rounded=1;whiteSpace=wrap;html=1;" vertex="1" parent="1">
          <mxGeometry x="380" y="830" width="120" height="80" as="geometry" />
        </mxCell>
        <mxCell id="L0sxh5gFCQi2ptvvYLSA-8" value="Bli sent til klesbutikk" style="rounded=1;whiteSpace=wrap;html=1;" vertex="1" parent="1">
          <mxGeometry x="380" y="540" width="120" height="60" as="geometry" />
        </mxCell>
        <mxCell id="L0sxh5gFCQi2ptvvYLSA-9" value="" style="line;strokeWidth=2;direction=south;html=1;" vertex="1" parent="1">
          <mxGeometry x="435" y="510" width="10" height="30" as="geometry" />
        </mxCell>
        <mxCell id="L0sxh5gFCQi2ptvvYLSA-15" style="edgeStyle=orthogonalEdgeStyle;rounded=0;orthogonalLoop=1;jettySize=auto;html=1;exitX=1;exitY=0.5;exitDx=0;exitDy=0;exitPerimeter=0;entryX=0.5;entryY=0;entryDx=0;entryDy=0;" edge="1" parent="1" source="L0sxh5gFCQi2ptvvYLSA-14" target="ukpxnibWKMu8RKWQ4isI-24">
          <mxGeometry relative="1" as="geometry" />
        </mxCell>
        <mxCell id="L0sxh5gFCQi2ptvvYLSA-14" value="" style="line;strokeWidth=2;direction=south;html=1;" vertex="1" parent="1">
          <mxGeometry x="435" y="600" width="10" height="40" as="geometry" />
        </mxCell>
      </root>
    </mxGraphModel>
  </diagram>
</mxfile>
